<svg xmlns="http://www.w3.org/2000/svg" viewBox="0 0 750 1050" width="750" height="1050">
  <defs>
    <linearGradient id="gold"><stop offset="0%" stop-color="#f0d060"/><stop offset="25%" stop-color="#daa520"/><stop offset="50%" stop-color="#f5e6a0"/><stop offset="75%" stop-color="#b8860b"/><stop offset="100%" stop-color="#f0d060"/></linearGradient>
    <linearGradient id="goldV"><stop offset="0%" stop-color="#f5e6a0"/><stop offset="30%" stop-color="#daa520"/><stop offset="60%" stop-color="#b8860b"/><stop offset="100%" stop-color="#f0d060"/></linearGradient>
    <linearGradient id="goldSubtle"><stop offset="0%" stop-color="#a08030"/><stop offset="50%" stop-color="#c4a040"/><stop offset="100%" stop-color="#a08030"/></linearGradient>
    <radialGradient id="divineGlow" cx="50%" cy="40%" r="50%"><stop offset="0%" stop-color="#f5e6a0" stop-opacity="0.3"/><stop offset="50%" stop-color="#daa520" stop-opacity="0.1"/><stop offset="100%" stop-color="#1a1208" stop-opacity="0"/></radialGradient>
    
  <radialGradient id="gkbg-gk-3" cx="50%" cy="40%" r="50%">
    <stop offset="0%" stop-color="#27ae60" stop-opacity="0.1"/><stop offset="100%" stop-color="#08060a" stop-opacity="0"/>
  </radialGradient>
  </defs>
  <rect width="750" height="1050" fill="#08060a"/>
  <rect width="750" height="1050" fill="url(#gkbg-gk-3)"/>
  <g><circle cx="0" cy="0" r="1" fill="#daa520"/><circle cx="173" cy="311" r="2" fill="#daa520"/><circle cx="346" cy="622" r="3" fill="#daa520"/><circle cx="519" cy="933" r="1" fill="#daa520"/><circle cx="692" cy="194" r="2" fill="#daa520"/><circle cx="115" cy="505" r="3" fill="#daa520"/><circle cx="288" cy="816" r="1" fill="#daa520"/><circle cx="461" cy="77" r="2" fill="#daa520"/><circle cx="634" cy="388" r="3" fill="#daa520"/><circle cx="57" cy="699" r="1" fill="#daa520"/><circle cx="230" cy="1010" r="2" fill="#daa520"/><circle cx="403" cy="271" r="3" fill="#daa520"/><circle cx="576" cy="582" r="1" fill="#daa520"/><circle cx="749" cy="893" r="2" fill="#daa520"/><circle cx="172" cy="154" r="3" fill="#daa520"/><circle cx="345" cy="465" r="1" fill="#daa520"/><circle cx="518" cy="776" r="2" fill="#daa520"/><circle cx="691" cy="37" r="3" fill="#daa520"/><circle cx="114" cy="348" r="1" fill="#daa520"/><circle cx="287" cy="659" r="2" fill="#daa520"/><circle cx="460" cy="970" r="3" fill="#daa520"/><circle cx="633" cy="231" r="1" fill="#daa520"/><circle cx="56" cy="542" r="2" fill="#daa520"/><circle cx="229" cy="853" r="3" fill="#daa520"/><circle cx="402" cy="114" r="1" fill="#daa520"/><circle cx="575" cy="425" r="2" fill="#daa520"/><circle cx="748" cy="736" r="3" fill="#daa520"/><circle cx="171" cy="1047" r="1" fill="#daa520"/><circle cx="344" cy="308" r="2" fill="#daa520"/><circle cx="517" cy="619" r="3" fill="#daa520"/><circle cx="690" cy="930" r="1" fill="#daa520"/><circle cx="113" cy="191" r="2" fill="#daa520"/><circle cx="286" cy="502" r="3" fill="#daa520"/><circle cx="459" cy="813" r="1" fill="#daa520"/><circle cx="632" cy="74" r="2" fill="#daa520"/><circle cx="55" cy="385" r="3" fill="#daa520"/><circle cx="228" cy="696" r="1" fill="#daa520"/><circle cx="401" cy="1007" r="2" fill="#daa520"/><circle cx="574" cy="268" r="3" fill="#daa520"/><circle cx="747" cy="579" r="1" fill="#daa520"/><circle cx="170" cy="890" r="2" fill="#daa520"/><circle cx="343" cy="151" r="3" fill="#daa520"/><circle cx="516" cy="462" r="1" fill="#daa520"/><circle cx="689" cy="773" r="2" fill="#daa520"/><circle cx="112" cy="34" r="3" fill="#daa520"/><circle cx="285" cy="345" r="1" fill="#daa520"/><circle cx="458" cy="656" r="2" fill="#daa520"/><circle cx="631" cy="967" r="3" fill="#daa520"/><circle cx="54" cy="228" r="1" fill="#daa520"/><circle cx="227" cy="539" r="2" fill="#daa520"/><circle cx="400" cy="850" r="3" fill="#daa520"/><circle cx="573" cy="111" r="1" fill="#daa520"/><circle cx="746" cy="422" r="2" fill="#daa520"/><circle cx="169" cy="733" r="3" fill="#daa520"/><circle cx="342" cy="1044" r="1" fill="#daa520"/><circle cx="515" cy="305" r="2" fill="#daa520"/><circle cx="688" cy="616" r="3" fill="#daa520"/><circle cx="111" cy="927" r="1" fill="#daa520"/><circle cx="284" cy="188" r="2" fill="#daa520"/><circle cx="457" cy="499" r="3" fill="#daa520"/><circle cx="630" cy="810" r="1" fill="#daa520"/><circle cx="53" cy="71" r="2" fill="#daa520"/><circle cx="226" cy="382" r="3" fill="#daa520"/><circle cx="399" cy="693" r="1" fill="#daa520"/><circle cx="572" cy="1004" r="2" fill="#daa520"/><circle cx="745" cy="265" r="3" fill="#daa520"/><circle cx="168" cy="576" r="1" fill="#daa520"/><circle cx="341" cy="887" r="2" fill="#daa520"/><circle cx="514" cy="148" r="3" fill="#daa520"/><circle cx="687" cy="459" r="1" fill="#daa520"/><circle cx="110" cy="770" r="2" fill="#daa520"/><circle cx="283" cy="31" r="3" fill="#daa520"/><circle cx="456" cy="342" r="1" fill="#daa520"/><circle cx="629" cy="653" r="2" fill="#daa520"/><circle cx="52" cy="964" r="3" fill="#daa520"/><circle cx="225" cy="225" r="1" fill="#daa520"/><circle cx="398" cy="536" r="2" fill="#daa520"/><circle cx="571" cy="847" r="3" fill="#daa520"/><circle cx="744" cy="108" r="1" fill="#daa520"/><circle cx="167" cy="419" r="2" fill="#daa520"/><circle cx="340" cy="730" r="3" fill="#daa520"/><circle cx="513" cy="1041" r="1" fill="#daa520"/><circle cx="686" cy="302" r="2" fill="#daa520"/><circle cx="109" cy="613" r="3" fill="#daa520"/><circle cx="282" cy="924" r="1" fill="#daa520"/><circle cx="455" cy="185" r="2" fill="#daa520"/><circle cx="628" cy="496" r="3" fill="#daa520"/><circle cx="51" cy="807" r="1" fill="#daa520"/><circle cx="224" cy="68" r="2" fill="#daa520"/><circle cx="397" cy="379" r="3" fill="#daa520"/><circle cx="570" cy="690" r="1" fill="#daa520"/><circle cx="743" cy="1001" r="2" fill="#daa520"/><circle cx="166" cy="262" r="3" fill="#daa520"/><circle cx="339" cy="573" r="1" fill="#daa520"/><circle cx="512" cy="884" r="2" fill="#daa520"/><circle cx="685" cy="145" r="3" fill="#daa520"/><circle cx="108" cy="456" r="1" fill="#daa520"/><circle cx="281" cy="767" r="2" fill="#daa520"/><circle cx="454" cy="28" r="3" fill="#daa520"/><circle cx="627" cy="339" r="1" fill="#daa520"/><circle cx="50" cy="650" r="2" fill="#daa520"/><circle cx="223" cy="961" r="3" fill="#daa520"/><circle cx="396" cy="222" r="1" fill="#daa520"/><circle cx="569" cy="533" r="2" fill="#daa520"/><circle cx="742" cy="844" r="3" fill="#daa520"/><circle cx="165" cy="105" r="1" fill="#daa520"/><circle cx="338" cy="416" r="2" fill="#daa520"/><circle cx="511" cy="727" r="3" fill="#daa520"/><circle cx="684" cy="1038" r="1" fill="#daa520"/><circle cx="107" cy="299" r="2" fill="#daa520"/><circle cx="280" cy="610" r="3" fill="#daa520"/><circle cx="453" cy="921" r="1" fill="#daa520"/><circle cx="626" cy="182" r="2" fill="#daa520"/><circle cx="49" cy="493" r="3" fill="#daa520"/><circle cx="222" cy="804" r="1" fill="#daa520"/><circle cx="395" cy="65" r="2" fill="#daa520"/><circle cx="568" cy="376" r="3" fill="#daa520"/><circle cx="741" cy="687" r="1" fill="#daa520"/><circle cx="164" cy="998" r="2" fill="#daa520"/><circle cx="337" cy="259" r="3" fill="#daa520"/></g>

  <rect x="30" y="30" width="690" height="990" rx="16" fill="none" stroke="url(#gold)" stroke-width="10"/>
  <rect x="42" y="42" width="666" height="966" rx="12" fill="none" stroke="url(#goldSubtle)" stroke-width="2"/>
  <rect x="48" y="48" width="654" height="954" rx="9" fill="none" stroke="#27ae60" stroke-width="2"/>

  <path d="M37 55 Q37 37 55 37 M37 49.6 Q42.4 42.4 49.6 37" stroke="url(#gold)" stroke-width="1.5" fill="none"/> <path d="M695 37 Q713 37 713 55 M700.4 37 Q707.6 42.4 713 49.6" stroke="url(#gold)" stroke-width="1.5" fill="none"/> <path d="M37 995 Q37 1013 55 1013 M37 1000.4 Q42.4 1007.6 49.6 1013" stroke="url(#gold)" stroke-width="1.5" fill="none"/> <path d="M695 1013 Q713 1013 713 995 M700.4 1013 Q707.6 1007.6 713 1000.4" stroke="url(#gold)" stroke-width="1.5" fill="none"/>

  <!-- BOSS BADGE -->
  <rect x="305" y="42" width="140" height="44" rx="22" fill="#7c3aed"/>
  <text x="375" y="72" text-anchor="middle" font-family="serif" font-size="20" font-weight="bold" fill="#f5e6a0" letter-spacing="3">👹 BOSS</text>

  <line x1="255" y1="102" x2="495" y2="102" stroke="url(#gold)" stroke-width="2"/>
  <circle cx="375" cy="102" r="5" fill="url(#gold)"/>

  <text x="375" y="130" text-anchor="middle" font-family="serif" font-size="18" font-weight="bold" fill="url(#goldV)" letter-spacing="5">Gatekeeper of Gluttony</text>

  <!-- NAME (large) -->
  <text x="375" y="960" text-anchor="middle" font-family="serif" font-size="36" font-weight="bold" fill="url(#gold)" letter-spacing="5">Cerberus</text>

  <!-- ILLUSTRATION -->
  <g transform="translate(375, 505)">
    <circle cx="0" cy="0" r="145" fill="none" stroke="url(#gold)" stroke-width="2"/>
    <circle cx="0" cy="0" r="125" fill="none" stroke="#27ae60" stroke-width="2"/>
    <circle cx="0" cy="0" r="98" fill="#7c3aed"/>

    <text x="0" y="15" text-anchor="middle" font-family="serif" font-size="96" font-weight="bold" fill="url(#gold)">7</text>
    <text x="0" y="-55" text-anchor="middle" font-family="serif" font-size="20" fill="url(#goldV)" letter-spacing="5">D6 TARGET</text>

    <text x="0" y="-115" text-anchor="middle" font-size="65">☠️</text>

    <!-- MECHANIC BOX -->
    <rect x="-245" y="48" width="490" height="95" rx="12" fill="#0a0805" stroke="url(#gold)" stroke-width="2"/>
    <text x="0" y="75" text-anchor="middle" font-family="serif" font-size="14" font-weight="bold" fill="url(#goldV)" letter-spacing="3">UNIQUE MECHANIC</text>
    <text x="0" y="100" text-anchor="middle" font-family="serif" font-size="15" fill="#f0d060">Three Heads: Roll D6 3 times, need 2+ successes</text>

    <!-- VICTORY / DEFEAT -->
    <rect x="-245" y="155" width="238" height="55" rx="8" fill="#0a2a0a" stroke="#22c55e" stroke-width="2"/>
    <text x="-126" y="180" text-anchor="middle" font-family="serif" font-size="14" font-weight="bold" fill="#22c55e">VICTORY</text>
    <text x="-126" y="200" text-anchor="middle" font-family="serif" font-size="15" fill="#4ade80">HP+25 Move+3</text>

    <rect x="7" y="155" width="238" height="55" rx="8" fill="#2a0a0a" stroke="#ef4444" stroke-width="2"/>
    <text x="126" y="180" text-anchor="middle" font-family="serif" font-size="14" font-weight="bold" fill="#ef4444">DEFEAT</text>
    <text x="126" y="200" text-anchor="middle" font-family="serif" font-size="15" fill="#f87171">HP-15 Back 3</text>
  </g></svg>