<?xml version="1.0" encoding="UTF-8"?>
<svg xmlns="http://www.w3.org/2000/svg" viewBox="0 0 750 1050" width="750" height="1050">
  <defs>
    <!-- Gold gradient -->
    <linearGradient id="gold" x1="0%" y1="0%" x2="100%" y2="100%">
      <stop offset="0%" stop-color="#f0d060"/>
      <stop offset="25%" stop-color="#daa520"/>
      <stop offset="50%" stop-color="#f5e6a0"/>
      <stop offset="75%" stop-color="#b8860b"/>
      <stop offset="100%" stop-color="#f0d060"/>
    </linearGradient>
    <linearGradient id="goldV" x1="50%" y1="0%" x2="50%" y2="100%">
      <stop offset="0%" stop-color="#f5e6a0"/>
      <stop offset="30%" stop-color="#daa520"/>
      <stop offset="60%" stop-color="#b8860b"/>
      <stop offset="100%" stop-color="#f0d060"/>
    </linearGradient>
    <linearGradient id="goldSubtle" x1="0%" y1="0%" x2="100%" y2="100%">
      <stop offset="0%" stop-color="#a08030"/>
      <stop offset="50%" stop-color="#c4a040"/>
      <stop offset="100%" stop-color="#a08030"/>
    </linearGradient>
    <linearGradient id="bgGrad" x1="0%" y1="0%" x2="100%" y2="100%">
      <stop offset="0%" stop-color="#0a0805"/>
      <stop offset="40%" stop-color="#14100a"/>
      <stop offset="100%" stop-color="#0a0805"/>
    </linearGradient>
    <linearGradient id="centerGlow" x1="50%" y1="50%" x2="100%" y2="100%">
      <stop offset="0%" stop-color="#b8860b" stop-opacity="0.25"/>
      <stop offset="60%" stop-color="#0a0805" stop-opacity="0"/>
    </linearGradient>
    <radialGradient id="innerGlow" cx="50%" cy="50%" r="50%">
      <stop offset="0%" stop-color="#daa520" stop-opacity="0.15"/>
      <stop offset="60%" stop-color="#0a0805" stop-opacity="0.05"/>
      <stop offset="100%" stop-color="#0a0805" stop-opacity="0.8"/>
    </radialGradient>

    <!-- Drop shadow filter -->
    <filter id="goldShadow" x="-10%" y="-10%" width="130%" height="130%">
      <feDropShadow dx="0" dy="0" stdDeviation="6" flood-color="#daa520" flood-opacity="0.4"/>
    </filter>
    <filter id="innerShadow">
      <feGaussianBlur in="SourceAlpha" stdDeviation="3" result="blur"/>
      <feOffset dx="0" dy="0"/>
      <feComposite in2="SourceAlpha" operator="arithmetic" k2="-1" k3="1" result="shadowDiff"/>
      <feFlood flood-color="#000" flood-opacity="0.6"/>
      <feComposite in2="shadowDiff" operator="in"/>
      <feComposite in2="SourceGraphic" operator="over"/>
    </filter>
  </defs>

  <!-- Dark background with subtle texture dots -->
  <rect width="750" height="1050" fill="url(#bgGrad)"/>
  <g opacity="0.03">
    <circle cx="0" cy="0" r="1" fill="#daa520"/><circle cx="173" cy="311" r="2" fill="#daa520"/><circle cx="346" cy="622" r="3" fill="#daa520"/><circle cx="519" cy="933" r="1" fill="#daa520"/><circle cx="692" cy="194" r="2" fill="#daa520"/><circle cx="115" cy="505" r="3" fill="#daa520"/><circle cx="288" cy="816" r="1" fill="#daa520"/><circle cx="461" cy="77" r="2" fill="#daa520"/><circle cx="634" cy="388" r="3" fill="#daa520"/><circle cx="57" cy="699" r="1" fill="#daa520"/><circle cx="230" cy="1010" r="2" fill="#daa520"/><circle cx="403" cy="271" r="3" fill="#daa520"/><circle cx="576" cy="582" r="1" fill="#daa520"/><circle cx="749" cy="893" r="2" fill="#daa520"/><circle cx="172" cy="154" r="3" fill="#daa520"/><circle cx="345" cy="465" r="1" fill="#daa520"/><circle cx="518" cy="776" r="2" fill="#daa520"/><circle cx="691" cy="37" r="3" fill="#daa520"/><circle cx="114" cy="348" r="1" fill="#daa520"/><circle cx="287" cy="659" r="2" fill="#daa520"/><circle cx="460" cy="970" r="3" fill="#daa520"/><circle cx="633" cy="231" r="1" fill="#daa520"/><circle cx="56" cy="542" r="2" fill="#daa520"/><circle cx="229" cy="853" r="3" fill="#daa520"/><circle cx="402" cy="114" r="1" fill="#daa520"/><circle cx="575" cy="425" r="2" fill="#daa520"/><circle cx="748" cy="736" r="3" fill="#daa520"/><circle cx="171" cy="1047" r="1" fill="#daa520"/><circle cx="344" cy="308" r="2" fill="#daa520"/><circle cx="517" cy="619" r="3" fill="#daa520"/><circle cx="690" cy="930" r="1" fill="#daa520"/><circle cx="113" cy="191" r="2" fill="#daa520"/><circle cx="286" cy="502" r="3" fill="#daa520"/><circle cx="459" cy="813" r="1" fill="#daa520"/><circle cx="632" cy="74" r="2" fill="#daa520"/><circle cx="55" cy="385" r="3" fill="#daa520"/><circle cx="228" cy="696" r="1" fill="#daa520"/><circle cx="401" cy="1007" r="2" fill="#daa520"/><circle cx="574" cy="268" r="3" fill="#daa520"/><circle cx="747" cy="579" r="1" fill="#daa520"/><circle cx="170" cy="890" r="2" fill="#daa520"/><circle cx="343" cy="151" r="3" fill="#daa520"/><circle cx="516" cy="462" r="1" fill="#daa520"/><circle cx="689" cy="773" r="2" fill="#daa520"/><circle cx="112" cy="34" r="3" fill="#daa520"/><circle cx="285" cy="345" r="1" fill="#daa520"/><circle cx="458" cy="656" r="2" fill="#daa520"/><circle cx="631" cy="967" r="3" fill="#daa520"/><circle cx="54" cy="228" r="1" fill="#daa520"/><circle cx="227" cy="539" r="2" fill="#daa520"/><circle cx="400" cy="850" r="3" fill="#daa520"/><circle cx="573" cy="111" r="1" fill="#daa520"/><circle cx="746" cy="422" r="2" fill="#daa520"/><circle cx="169" cy="733" r="3" fill="#daa520"/><circle cx="342" cy="1044" r="1" fill="#daa520"/><circle cx="515" cy="305" r="2" fill="#daa520"/><circle cx="688" cy="616" r="3" fill="#daa520"/><circle cx="111" cy="927" r="1" fill="#daa520"/><circle cx="284" cy="188" r="2" fill="#daa520"/><circle cx="457" cy="499" r="3" fill="#daa520"/><circle cx="630" cy="810" r="1" fill="#daa520"/><circle cx="53" cy="71" r="2" fill="#daa520"/><circle cx="226" cy="382" r="3" fill="#daa520"/><circle cx="399" cy="693" r="1" fill="#daa520"/><circle cx="572" cy="1004" r="2" fill="#daa520"/><circle cx="745" cy="265" r="3" fill="#daa520"/><circle cx="168" cy="576" r="1" fill="#daa520"/><circle cx="341" cy="887" r="2" fill="#daa520"/><circle cx="514" cy="148" r="3" fill="#daa520"/><circle cx="687" cy="459" r="1" fill="#daa520"/><circle cx="110" cy="770" r="2" fill="#daa520"/><circle cx="283" cy="31" r="3" fill="#daa520"/><circle cx="456" cy="342" r="1" fill="#daa520"/><circle cx="629" cy="653" r="2" fill="#daa520"/><circle cx="52" cy="964" r="3" fill="#daa520"/><circle cx="225" cy="225" r="1" fill="#daa520"/><circle cx="398" cy="536" r="2" fill="#daa520"/><circle cx="571" cy="847" r="3" fill="#daa520"/><circle cx="744" cy="108" r="1" fill="#daa520"/><circle cx="167" cy="419" r="2" fill="#daa520"/><circle cx="340" cy="730" r="3" fill="#daa520"/><circle cx="513" cy="1041" r="1" fill="#daa520"/><circle cx="686" cy="302" r="2" fill="#daa520"/><circle cx="109" cy="613" r="3" fill="#daa520"/><circle cx="282" cy="924" r="1" fill="#daa520"/><circle cx="455" cy="185" r="2" fill="#daa520"/><circle cx="628" cy="496" r="3" fill="#daa520"/><circle cx="51" cy="807" r="1" fill="#daa520"/><circle cx="224" cy="68" r="2" fill="#daa520"/><circle cx="397" cy="379" r="3" fill="#daa520"/><circle cx="570" cy="690" r="1" fill="#daa520"/><circle cx="743" cy="1001" r="2" fill="#daa520"/><circle cx="166" cy="262" r="3" fill="#daa520"/><circle cx="339" cy="573" r="1" fill="#daa520"/><circle cx="512" cy="884" r="2" fill="#daa520"/><circle cx="685" cy="145" r="3" fill="#daa520"/><circle cx="108" cy="456" r="1" fill="#daa520"/><circle cx="281" cy="767" r="2" fill="#daa520"/><circle cx="454" cy="28" r="3" fill="#daa520"/><circle cx="627" cy="339" r="1" fill="#daa520"/><circle cx="50" cy="650" r="2" fill="#daa520"/><circle cx="223" cy="961" r="3" fill="#daa520"/><circle cx="396" cy="222" r="1" fill="#daa520"/><circle cx="569" cy="533" r="2" fill="#daa520"/><circle cx="742" cy="844" r="3" fill="#daa520"/><circle cx="165" cy="105" r="1" fill="#daa520"/><circle cx="338" cy="416" r="2" fill="#daa520"/><circle cx="511" cy="727" r="3" fill="#daa520"/><circle cx="684" cy="1038" r="1" fill="#daa520"/><circle cx="107" cy="299" r="2" fill="#daa520"/><circle cx="280" cy="610" r="3" fill="#daa520"/><circle cx="453" cy="921" r="1" fill="#daa520"/><circle cx="626" cy="182" r="2" fill="#daa520"/><circle cx="49" cy="493" r="3" fill="#daa520"/><circle cx="222" cy="804" r="1" fill="#daa520"/><circle cx="395" cy="65" r="2" fill="#daa520"/><circle cx="568" cy="376" r="3" fill="#daa520"/><circle cx="741" cy="687" r="1" fill="#daa520"/><circle cx="164" cy="998" r="2" fill="#daa520"/><circle cx="337" cy="259" r="3" fill="#daa520"/><circle cx="510" cy="570" r="1" fill="#daa520"/><circle cx="683" cy="881" r="2" fill="#daa520"/><circle cx="106" cy="142" r="3" fill="#daa520"/><circle cx="279" cy="453" r="1" fill="#daa520"/><circle cx="452" cy="764" r="2" fill="#daa520"/><circle cx="625" cy="25" r="3" fill="#daa520"/><circle cx="48" cy="336" r="1" fill="#daa520"/><circle cx="221" cy="647" r="2" fill="#daa520"/><circle cx="394" cy="958" r="3" fill="#daa520"/><circle cx="567" cy="219" r="1" fill="#daa520"/><circle cx="740" cy="530" r="2" fill="#daa520"/><circle cx="163" cy="841" r="3" fill="#daa520"/><circle cx="336" cy="102" r="1" fill="#daa520"/><circle cx="509" cy="413" r="2" fill="#daa520"/><circle cx="682" cy="724" r="3" fill="#daa520"/><circle cx="105" cy="1035" r="1" fill="#daa520"/><circle cx="278" cy="296" r="2" fill="#daa520"/><circle cx="451" cy="607" r="3" fill="#daa520"/><circle cx="624" cy="918" r="1" fill="#daa520"/><circle cx="47" cy="179" r="2" fill="#daa520"/><circle cx="220" cy="490" r="3" fill="#daa520"/><circle cx="393" cy="801" r="1" fill="#daa520"/><circle cx="566" cy="62" r="2" fill="#daa520"/><circle cx="739" cy="373" r="3" fill="#daa520"/><circle cx="162" cy="684" r="1" fill="#daa520"/><circle cx="335" cy="995" r="2" fill="#daa520"/><circle cx="508" cy="256" r="3" fill="#daa520"/><circle cx="681" cy="567" r="1" fill="#daa520"/><circle cx="104" cy="878" r="2" fill="#daa520"/><circle cx="277" cy="139" r="3" fill="#daa520"/><circle cx="450" cy="450" r="1" fill="#daa520"/><circle cx="623" cy="761" r="2" fill="#daa520"/><circle cx="46" cy="22" r="3" fill="#daa520"/><circle cx="219" cy="333" r="1" fill="#daa520"/><circle cx="392" cy="644" r="2" fill="#daa520"/><circle cx="565" cy="955" r="3" fill="#daa520"/><circle cx="738" cy="216" r="1" fill="#daa520"/><circle cx="161" cy="527" r="2" fill="#daa520"/><circle cx="334" cy="838" r="3" fill="#daa520"/><circle cx="507" cy="99" r="1" fill="#daa520"/><circle cx="680" cy="410" r="2" fill="#daa520"/><circle cx="103" cy="721" r="3" fill="#daa520"/><circle cx="276" cy="1032" r="1" fill="#daa520"/><circle cx="449" cy="293" r="2" fill="#daa520"/><circle cx="622" cy="604" r="3" fill="#daa520"/><circle cx="45" cy="915" r="1" fill="#daa520"/><circle cx="218" cy="176" r="2" fill="#daa520"/><circle cx="391" cy="487" r="3" fill="#daa520"/><circle cx="564" cy="798" r="1" fill="#daa520"/><circle cx="737" cy="59" r="2" fill="#daa520"/><circle cx="160" cy="370" r="3" fill="#daa520"/><circle cx="333" cy="681" r="1" fill="#daa520"/><circle cx="506" cy="992" r="2" fill="#daa520"/><circle cx="679" cy="253" r="3" fill="#daa520"/><circle cx="102" cy="564" r="1" fill="#daa520"/><circle cx="275" cy="875" r="2" fill="#daa520"/><circle cx="448" cy="136" r="3" fill="#daa520"/><circle cx="621" cy="447" r="1" fill="#daa520"/><circle cx="44" cy="758" r="2" fill="#daa520"/><circle cx="217" cy="19" r="3" fill="#daa520"/><circle cx="390" cy="330" r="1" fill="#daa520"/><circle cx="563" cy="641" r="2" fill="#daa520"/><circle cx="736" cy="952" r="3" fill="#daa520"/><circle cx="159" cy="213" r="1" fill="#daa520"/><circle cx="332" cy="524" r="2" fill="#daa520"/><circle cx="505" cy="835" r="3" fill="#daa520"/><circle cx="678" cy="96" r="1" fill="#daa520"/><circle cx="101" cy="407" r="2" fill="#daa520"/><circle cx="274" cy="718" r="3" fill="#daa520"/><circle cx="447" cy="1029" r="1" fill="#daa520"/><circle cx="620" cy="290" r="2" fill="#daa520"/><circle cx="43" cy="601" r="3" fill="#daa520"/><circle cx="216" cy="912" r="1" fill="#daa520"/><circle cx="389" cy="173" r="2" fill="#daa520"/><circle cx="562" cy="484" r="3" fill="#daa520"/><circle cx="735" cy="795" r="1" fill="#daa520"/><circle cx="158" cy="56" r="2" fill="#daa520"/><circle cx="331" cy="367" r="3" fill="#daa520"/><circle cx="504" cy="678" r="1" fill="#daa520"/><circle cx="677" cy="989" r="2" fill="#daa520"/>
  </g>

  
      
  <!-- Outer frame -->
  <rect x="30" y="30" width="690" height="990" rx="12" ry="12"
        fill="none" stroke="url(#gold)" stroke-width="6" filter="url(#goldShadow)"/>
  <rect x="38" y="38" width="674" height="974" rx="8" ry="8"
        fill="none" stroke="url(#goldSubtle)" stroke-width="1.5" opacity="0.6"/>

  <!-- Corner ornaments -->
  <path d="M34 52 Q34 34 52 34 M34 46.6 Q39.4 39.4 46.6 34" stroke="url(#gold)" stroke-width="1.5" fill="none" opacity="0.7"/>
  <path d="M698 34 Q716 34 716 52 M703.4 34 Q710.6 39.4 716 46.6" stroke="url(#gold)" stroke-width="1.5" fill="none" opacity="0.7"/>
  <path d="M34 998 Q34 1016 52 1016 M34 1003.4 Q39.4 1010.6 46.6 1016" stroke="url(#gold)" stroke-width="1.5" fill="none" opacity="0.7"/>
  <path d="M698 1016 Q716 1016 716 998 M703.4 1016 Q710.6 1010.6 716 1003.4" stroke="url(#gold)" stroke-width="1.5" fill="none" opacity="0.7"/>

  <!-- Top filigree bar -->
  <rect x="50" y="34" width="650" height="2" fill="url(#gold)" opacity="0.4"/>
  <!-- Bottom filigree bar -->
  <rect x="50" y="1014" width="650" height="2" fill="url(#gold)" opacity="0.4"/>

  <!-- Roman numeral at top -->
  <text x="375" y="86" text-anchor="middle"
        font-family="'Times New Roman', 'Cinzel', serif"
        font-size="36" font-weight="bold"
        fill="url(#gold)" filter="url(#goldShadow)"
        letter-spacing="3">XVII</text>

  <!-- Decorative line under numeral -->
  <line x1="295" y1="102" x2="455" y2="102"
        stroke="url(#gold)" stroke-width="1" opacity="0.5"/>
  <circle cx="375" cy="102" r="3" fill="url(#gold)" opacity="0.7"/>

  <!-- Card name (Korean) at bottom -->
  <text x="375" y="960" text-anchor="middle"
        font-family="'Cinzel', serif"
        font-size="32" font-weight="bold"
        fill="url(#goldV)" filter="url(#goldShadow)"
        letter-spacing="4">별</text>

  <!-- Card name (English) -->
  <text x="375" y="992" text-anchor="middle"
        font-family="'Cinzel', 'Times New Roman', serif"
        font-size="15" font-style="italic"
        fill="url(#goldSubtle)" opacity="0.8"
        letter-spacing="2">The Star</text>

  <!-- Decorative pillars -->
  <rect x="44" y="120" width="1.5" height="820" fill="url(#gold)" opacity="0.15" rx="1"/>
  <rect x="704.5" y="120" width="1.5" height="820" fill="url(#gold)" opacity="0.15" rx="1"/>
  
      
<g transform="translate(375,510)">
  <!-- Large central star -->
  <polygon points="0.0,-75.0 5.7,-53.9 24.7,-64.7 13.9,-45.7 35.0,-40.0 13.9,-34.3 24.7,-15.3 5.7,-26.1 0.0,-5.0 -5.7,-26.1 -24.7,-15.3 -13.9,-34.3 -35.0,-40.0 -13.9,-45.7 -24.7,-64.7 -5.7,-53.9" fill="#daa520" opacity="0.85"/>
  <!-- Star glow -->
  <circle cx="0" cy="-40" r="45" fill="#daa520" opacity="0.06"/>
  <circle cx="0" cy="-40" r="60" fill="#daa520" opacity="0.04"/>
  <!-- Seven smaller stars -->
  <polygon points="-55.0,-101.0 -53.2,-97.4 -49.3,-96.9 -52.1,-94.1 -51.5,-90.1 -55.0,-92.0 -58.5,-90.1 -57.9,-94.1 -60.7,-96.9 -56.8,-97.4" fill="#daa520" opacity="0.45"/><polygon points="-30.0,-121.0 -28.2,-117.4 -24.3,-116.9 -27.1,-114.1 -26.5,-110.1 -30.0,-112.0 -33.5,-110.1 -32.9,-114.1 -35.7,-116.9 -31.8,-117.4" fill="#daa520" opacity="0.45"/><polygon points="15.0,-106.0 16.8,-102.4 20.7,-101.9 17.9,-99.1 18.5,-95.1 15.0,-97.0 11.5,-95.1 12.1,-99.1 9.3,-101.9 13.2,-102.4" fill="#daa520" opacity="0.45"/><polygon points="50.0,-86.0 51.8,-82.4 55.7,-81.9 52.9,-79.1 53.5,-75.1 50.0,-77.0 46.5,-75.1 47.1,-79.1 44.3,-81.9 48.2,-82.4" fill="#daa520" opacity="0.45"/><polygon points="65.0,-56.0 66.8,-52.4 70.7,-51.9 67.9,-49.1 68.5,-45.1 65.0,-47.0 61.5,-45.1 62.1,-49.1 59.3,-51.9 63.2,-52.4" fill="#daa520" opacity="0.45"/><polygon points="45.0,-26.0 46.8,-22.4 50.7,-21.9 47.9,-19.1 48.5,-15.1 45.0,-17.0 41.5,-15.1 42.1,-19.1 39.3,-21.9 43.2,-22.4" fill="#daa520" opacity="0.45"/><polygon points="-60.0,-71.0 -58.2,-67.4 -54.3,-66.9 -57.1,-64.1 -56.5,-60.1 -60.0,-62.0 -63.5,-60.1 -62.9,-64.1 -65.7,-66.9 -61.8,-67.4" fill="#daa520" opacity="0.45"/>
  <!-- Woman figure pouring water -->
  <path d="M-30,20 L-35,70 L10,70 L10,20 Z" fill="url(#gold)" opacity="0.55"/>
  <circle cx="-12" cy="5" r="13" fill="url(#gold)" opacity="0.6"/>
  <!-- Hair flowing -->
  <path d="M-20,0 Q-35,-15 -25,-30" stroke="url(#gold)" stroke-width="1.5" fill="none" opacity="0.4"/>
  <!-- Kneeling leg -->
  <line x1="-30" y1="60" x2="-10" y2="75" stroke="url(#gold)" stroke-width="2.5" opacity="0.5"/>
  <!-- Two pitchers pouring water -->
  <!-- Left pitcher -->
  <path d="M-35,30 L-40,40 L-25,40 Z" fill="url(#gold)" opacity="0.35"/>
  <!-- Right pitcher -->
  <path d="M15,30 L20,40 L5,40 Z" fill="url(#gold)" opacity="0.35"/>
  <!-- Water streams -->
  <path d="M-35,40 Q-50,55 -55,75" stroke="#6ab0de" stroke-width="2" fill="none" opacity="0.35"/>
  <path d="M15,40 Q30,55 35,75" stroke="#6ab0de" stroke-width="2" fill="none" opacity="0.35"/>
  <!-- Pool / water at bottom -->
  <path d="M-70,75 Q-30,85 0,75 Q30,85 70,75 L70,90 L-70,90 Z" fill="#6ab0de" opacity="0.12"/>
  <path d="M-70,75 Q-30,85 0,75 Q30,85 70,75" stroke="#6ab0de" stroke-width="1" fill="none" opacity="0.3"/>
  <!-- Tree / bird in background -->
  <line x1="-60" y1="0" x2="-60" y2="30" stroke="url(#gold)" stroke-width="1.5" opacity="0.2"/>
  <circle cx="-60" cy="-5" r="10" fill="none" stroke="url(#gold)" stroke-width="0.8" opacity="0.2"/>
  <path d="M-65,-15 L-55,-25 L-65,-20" stroke="url(#gold)" stroke-width="0.8" fill="none" opacity="0.2"/>
</g>
      <rect x="30" y="30" width="690" height="990" rx="12" ry="12"
            fill="url(#innerGlow)" pointer-events="none"/>
    
</svg>