<?xml version="1.0" encoding="UTF-8"?>
<svg xmlns="http://www.w3.org/2000/svg" viewBox="0 0 750 1050" width="750" height="1050">
  <defs>
    <!-- Gold gradient -->
    <linearGradient id="gold" x1="0%" y1="0%" x2="100%" y2="100%">
      <stop offset="0%" stop-color="#f0d060"/>
      <stop offset="25%" stop-color="#daa520"/>
      <stop offset="50%" stop-color="#f5e6a0"/>
      <stop offset="75%" stop-color="#b8860b"/>
      <stop offset="100%" stop-color="#f0d060"/>
    </linearGradient>
    <linearGradient id="goldV" x1="50%" y1="0%" x2="50%" y2="100%">
      <stop offset="0%" stop-color="#f5e6a0"/>
      <stop offset="30%" stop-color="#daa520"/>
      <stop offset="60%" stop-color="#b8860b"/>
      <stop offset="100%" stop-color="#f0d060"/>
    </linearGradient>
    <linearGradient id="goldSubtle" x1="0%" y1="0%" x2="100%" y2="100%">
      <stop offset="0%" stop-color="#a08030"/>
      <stop offset="50%" stop-color="#c4a040"/>
      <stop offset="100%" stop-color="#a08030"/>
    </linearGradient>
    <linearGradient id="bgGrad" x1="0%" y1="0%" x2="100%" y2="100%">
      <stop offset="0%" stop-color="#0a0805"/>
      <stop offset="40%" stop-color="#14100a"/>
      <stop offset="100%" stop-color="#0a0805"/>
    </linearGradient>
    <linearGradient id="centerGlow" x1="50%" y1="50%" x2="100%" y2="100%">
      <stop offset="0%" stop-color="#b8860b" stop-opacity="0.25"/>
      <stop offset="60%" stop-color="#0a0805" stop-opacity="0"/>
    </linearGradient>
    <radialGradient id="innerGlow" cx="50%" cy="50%" r="50%">
      <stop offset="0%" stop-color="#daa520" stop-opacity="0.15"/>
      <stop offset="60%" stop-color="#0a0805" stop-opacity="0.05"/>
      <stop offset="100%" stop-color="#0a0805" stop-opacity="0.8"/>
    </radialGradient>

    <!-- Drop shadow filter -->
    <filter id="goldShadow" x="-10%" y="-10%" width="130%" height="130%">
      <feDropShadow dx="0" dy="0" stdDeviation="6" flood-color="#daa520" flood-opacity="0.4"/>
    </filter>
    <filter id="innerShadow">
      <feGaussianBlur in="SourceAlpha" stdDeviation="3" result="blur"/>
      <feOffset dx="0" dy="0"/>
      <feComposite in2="SourceAlpha" operator="arithmetic" k2="-1" k3="1" result="shadowDiff"/>
      <feFlood flood-color="#000" flood-opacity="0.6"/>
      <feComposite in2="shadowDiff" operator="in"/>
      <feComposite in2="SourceGraphic" operator="over"/>
    </filter>
  </defs>

  <!-- Dark background with subtle texture dots -->
  <rect width="750" height="1050" fill="url(#bgGrad)"/>
  <g opacity="0.03">
    <circle cx="0" cy="0" r="1" fill="#daa520"/><circle cx="173" cy="311" r="2" fill="#daa520"/><circle cx="346" cy="622" r="3" fill="#daa520"/><circle cx="519" cy="933" r="1" fill="#daa520"/><circle cx="692" cy="194" r="2" fill="#daa520"/><circle cx="115" cy="505" r="3" fill="#daa520"/><circle cx="288" cy="816" r="1" fill="#daa520"/><circle cx="461" cy="77" r="2" fill="#daa520"/><circle cx="634" cy="388" r="3" fill="#daa520"/><circle cx="57" cy="699" r="1" fill="#daa520"/><circle cx="230" cy="1010" r="2" fill="#daa520"/><circle cx="403" cy="271" r="3" fill="#daa520"/><circle cx="576" cy="582" r="1" fill="#daa520"/><circle cx="749" cy="893" r="2" fill="#daa520"/><circle cx="172" cy="154" r="3" fill="#daa520"/><circle cx="345" cy="465" r="1" fill="#daa520"/><circle cx="518" cy="776" r="2" fill="#daa520"/><circle cx="691" cy="37" r="3" fill="#daa520"/><circle cx="114" cy="348" r="1" fill="#daa520"/><circle cx="287" cy="659" r="2" fill="#daa520"/><circle cx="460" cy="970" r="3" fill="#daa520"/><circle cx="633" cy="231" r="1" fill="#daa520"/><circle cx="56" cy="542" r="2" fill="#daa520"/><circle cx="229" cy="853" r="3" fill="#daa520"/><circle cx="402" cy="114" r="1" fill="#daa520"/><circle cx="575" cy="425" r="2" fill="#daa520"/><circle cx="748" cy="736" r="3" fill="#daa520"/><circle cx="171" cy="1047" r="1" fill="#daa520"/><circle cx="344" cy="308" r="2" fill="#daa520"/><circle cx="517" cy="619" r="3" fill="#daa520"/><circle cx="690" cy="930" r="1" fill="#daa520"/><circle cx="113" cy="191" r="2" fill="#daa520"/><circle cx="286" cy="502" r="3" fill="#daa520"/><circle cx="459" cy="813" r="1" fill="#daa520"/><circle cx="632" cy="74" r="2" fill="#daa520"/><circle cx="55" cy="385" r="3" fill="#daa520"/><circle cx="228" cy="696" r="1" fill="#daa520"/><circle cx="401" cy="1007" r="2" fill="#daa520"/><circle cx="574" cy="268" r="3" fill="#daa520"/><circle cx="747" cy="579" r="1" fill="#daa520"/><circle cx="170" cy="890" r="2" fill="#daa520"/><circle cx="343" cy="151" r="3" fill="#daa520"/><circle cx="516" cy="462" r="1" fill="#daa520"/><circle cx="689" cy="773" r="2" fill="#daa520"/><circle cx="112" cy="34" r="3" fill="#daa520"/><circle cx="285" cy="345" r="1" fill="#daa520"/><circle cx="458" cy="656" r="2" fill="#daa520"/><circle cx="631" cy="967" r="3" fill="#daa520"/><circle cx="54" cy="228" r="1" fill="#daa520"/><circle cx="227" cy="539" r="2" fill="#daa520"/><circle cx="400" cy="850" r="3" fill="#daa520"/><circle cx="573" cy="111" r="1" fill="#daa520"/><circle cx="746" cy="422" r="2" fill="#daa520"/><circle cx="169" cy="733" r="3" fill="#daa520"/><circle cx="342" cy="1044" r="1" fill="#daa520"/><circle cx="515" cy="305" r="2" fill="#daa520"/><circle cx="688" cy="616" r="3" fill="#daa520"/><circle cx="111" cy="927" r="1" fill="#daa520"/><circle cx="284" cy="188" r="2" fill="#daa520"/><circle cx="457" cy="499" r="3" fill="#daa520"/><circle cx="630" cy="810" r="1" fill="#daa520"/><circle cx="53" cy="71" r="2" fill="#daa520"/><circle cx="226" cy="382" r="3" fill="#daa520"/><circle cx="399" cy="693" r="1" fill="#daa520"/><circle cx="572" cy="1004" r="2" fill="#daa520"/><circle cx="745" cy="265" r="3" fill="#daa520"/><circle cx="168" cy="576" r="1" fill="#daa520"/><circle cx="341" cy="887" r="2" fill="#daa520"/><circle cx="514" cy="148" r="3" fill="#daa520"/><circle cx="687" cy="459" r="1" fill="#daa520"/><circle cx="110" cy="770" r="2" fill="#daa520"/><circle cx="283" cy="31" r="3" fill="#daa520"/><circle cx="456" cy="342" r="1" fill="#daa520"/><circle cx="629" cy="653" r="2" fill="#daa520"/><circle cx="52" cy="964" r="3" fill="#daa520"/><circle cx="225" cy="225" r="1" fill="#daa520"/><circle cx="398" cy="536" r="2" fill="#daa520"/><circle cx="571" cy="847" r="3" fill="#daa520"/><circle cx="744" cy="108" r="1" fill="#daa520"/><circle cx="167" cy="419" r="2" fill="#daa520"/><circle cx="340" cy="730" r="3" fill="#daa520"/><circle cx="513" cy="1041" r="1" fill="#daa520"/><circle cx="686" cy="302" r="2" fill="#daa520"/><circle cx="109" cy="613" r="3" fill="#daa520"/><circle cx="282" cy="924" r="1" fill="#daa520"/><circle cx="455" cy="185" r="2" fill="#daa520"/><circle cx="628" cy="496" r="3" fill="#daa520"/><circle cx="51" cy="807" r="1" fill="#daa520"/><circle cx="224" cy="68" r="2" fill="#daa520"/><circle cx="397" cy="379" r="3" fill="#daa520"/><circle cx="570" cy="690" r="1" fill="#daa520"/><circle cx="743" cy="1001" r="2" fill="#daa520"/><circle cx="166" cy="262" r="3" fill="#daa520"/><circle cx="339" cy="573" r="1" fill="#daa520"/><circle cx="512" cy="884" r="2" fill="#daa520"/><circle cx="685" cy="145" r="3" fill="#daa520"/><circle cx="108" cy="456" r="1" fill="#daa520"/><circle cx="281" cy="767" r="2" fill="#daa520"/><circle cx="454" cy="28" r="3" fill="#daa520"/><circle cx="627" cy="339" r="1" fill="#daa520"/><circle cx="50" cy="650" r="2" fill="#daa520"/><circle cx="223" cy="961" r="3" fill="#daa520"/><circle cx="396" cy="222" r="1" fill="#daa520"/><circle cx="569" cy="533" r="2" fill="#daa520"/><circle cx="742" cy="844" r="3" fill="#daa520"/><circle cx="165" cy="105" r="1" fill="#daa520"/><circle cx="338" cy="416" r="2" fill="#daa520"/><circle cx="511" cy="727" r="3" fill="#daa520"/><circle cx="684" cy="1038" r="1" fill="#daa520"/><circle cx="107" cy="299" r="2" fill="#daa520"/><circle cx="280" cy="610" r="3" fill="#daa520"/><circle cx="453" cy="921" r="1" fill="#daa520"/><circle cx="626" cy="182" r="2" fill="#daa520"/><circle cx="49" cy="493" r="3" fill="#daa520"/><circle cx="222" cy="804" r="1" fill="#daa520"/><circle cx="395" cy="65" r="2" fill="#daa520"/><circle cx="568" cy="376" r="3" fill="#daa520"/><circle cx="741" cy="687" r="1" fill="#daa520"/><circle cx="164" cy="998" r="2" fill="#daa520"/><circle cx="337" cy="259" r="3" fill="#daa520"/><circle cx="510" cy="570" r="1" fill="#daa520"/><circle cx="683" cy="881" r="2" fill="#daa520"/><circle cx="106" cy="142" r="3" fill="#daa520"/><circle cx="279" cy="453" r="1" fill="#daa520"/><circle cx="452" cy="764" r="2" fill="#daa520"/><circle cx="625" cy="25" r="3" fill="#daa520"/><circle cx="48" cy="336" r="1" fill="#daa520"/><circle cx="221" cy="647" r="2" fill="#daa520"/><circle cx="394" cy="958" r="3" fill="#daa520"/><circle cx="567" cy="219" r="1" fill="#daa520"/><circle cx="740" cy="530" r="2" fill="#daa520"/><circle cx="163" cy="841" r="3" fill="#daa520"/><circle cx="336" cy="102" r="1" fill="#daa520"/><circle cx="509" cy="413" r="2" fill="#daa520"/><circle cx="682" cy="724" r="3" fill="#daa520"/><circle cx="105" cy="1035" r="1" fill="#daa520"/><circle cx="278" cy="296" r="2" fill="#daa520"/><circle cx="451" cy="607" r="3" fill="#daa520"/><circle cx="624" cy="918" r="1" fill="#daa520"/><circle cx="47" cy="179" r="2" fill="#daa520"/><circle cx="220" cy="490" r="3" fill="#daa520"/><circle cx="393" cy="801" r="1" fill="#daa520"/><circle cx="566" cy="62" r="2" fill="#daa520"/><circle cx="739" cy="373" r="3" fill="#daa520"/><circle cx="162" cy="684" r="1" fill="#daa520"/><circle cx="335" cy="995" r="2" fill="#daa520"/><circle cx="508" cy="256" r="3" fill="#daa520"/><circle cx="681" cy="567" r="1" fill="#daa520"/><circle cx="104" cy="878" r="2" fill="#daa520"/><circle cx="277" cy="139" r="3" fill="#daa520"/><circle cx="450" cy="450" r="1" fill="#daa520"/><circle cx="623" cy="761" r="2" fill="#daa520"/><circle cx="46" cy="22" r="3" fill="#daa520"/><circle cx="219" cy="333" r="1" fill="#daa520"/><circle cx="392" cy="644" r="2" fill="#daa520"/><circle cx="565" cy="955" r="3" fill="#daa520"/><circle cx="738" cy="216" r="1" fill="#daa520"/><circle cx="161" cy="527" r="2" fill="#daa520"/><circle cx="334" cy="838" r="3" fill="#daa520"/><circle cx="507" cy="99" r="1" fill="#daa520"/><circle cx="680" cy="410" r="2" fill="#daa520"/><circle cx="103" cy="721" r="3" fill="#daa520"/><circle cx="276" cy="1032" r="1" fill="#daa520"/><circle cx="449" cy="293" r="2" fill="#daa520"/><circle cx="622" cy="604" r="3" fill="#daa520"/><circle cx="45" cy="915" r="1" fill="#daa520"/><circle cx="218" cy="176" r="2" fill="#daa520"/><circle cx="391" cy="487" r="3" fill="#daa520"/><circle cx="564" cy="798" r="1" fill="#daa520"/><circle cx="737" cy="59" r="2" fill="#daa520"/><circle cx="160" cy="370" r="3" fill="#daa520"/><circle cx="333" cy="681" r="1" fill="#daa520"/><circle cx="506" cy="992" r="2" fill="#daa520"/><circle cx="679" cy="253" r="3" fill="#daa520"/><circle cx="102" cy="564" r="1" fill="#daa520"/><circle cx="275" cy="875" r="2" fill="#daa520"/><circle cx="448" cy="136" r="3" fill="#daa520"/><circle cx="621" cy="447" r="1" fill="#daa520"/><circle cx="44" cy="758" r="2" fill="#daa520"/><circle cx="217" cy="19" r="3" fill="#daa520"/><circle cx="390" cy="330" r="1" fill="#daa520"/><circle cx="563" cy="641" r="2" fill="#daa520"/><circle cx="736" cy="952" r="3" fill="#daa520"/><circle cx="159" cy="213" r="1" fill="#daa520"/><circle cx="332" cy="524" r="2" fill="#daa520"/><circle cx="505" cy="835" r="3" fill="#daa520"/><circle cx="678" cy="96" r="1" fill="#daa520"/><circle cx="101" cy="407" r="2" fill="#daa520"/><circle cx="274" cy="718" r="3" fill="#daa520"/><circle cx="447" cy="1029" r="1" fill="#daa520"/><circle cx="620" cy="290" r="2" fill="#daa520"/><circle cx="43" cy="601" r="3" fill="#daa520"/><circle cx="216" cy="912" r="1" fill="#daa520"/><circle cx="389" cy="173" r="2" fill="#daa520"/><circle cx="562" cy="484" r="3" fill="#daa520"/><circle cx="735" cy="795" r="1" fill="#daa520"/><circle cx="158" cy="56" r="2" fill="#daa520"/><circle cx="331" cy="367" r="3" fill="#daa520"/><circle cx="504" cy="678" r="1" fill="#daa520"/><circle cx="677" cy="989" r="2" fill="#daa520"/>
  </g>

  
      
  <!-- Outer frame -->
  <rect x="30" y="30" width="690" height="990" rx="12" ry="12"
        fill="none" stroke="url(#gold)" stroke-width="6" filter="url(#goldShadow)"/>
  <rect x="38" y="38" width="674" height="974" rx="8" ry="8"
        fill="none" stroke="url(#goldSubtle)" stroke-width="1.5" opacity="0.6"/>

  <!-- Corner ornaments -->
  <path d="M34 52 Q34 34 52 34 M34 46.6 Q39.4 39.4 46.6 34" stroke="url(#gold)" stroke-width="1.5" fill="none" opacity="0.7"/>
  <path d="M698 34 Q716 34 716 52 M703.4 34 Q710.6 39.4 716 46.6" stroke="url(#gold)" stroke-width="1.5" fill="none" opacity="0.7"/>
  <path d="M34 998 Q34 1016 52 1016 M34 1003.4 Q39.4 1010.6 46.6 1016" stroke="url(#gold)" stroke-width="1.5" fill="none" opacity="0.7"/>
  <path d="M698 1016 Q716 1016 716 998 M703.4 1016 Q710.6 1010.6 716 1003.4" stroke="url(#gold)" stroke-width="1.5" fill="none" opacity="0.7"/>

  <!-- Top filigree bar -->
  <rect x="50" y="34" width="650" height="2" fill="url(#gold)" opacity="0.4"/>
  <!-- Bottom filigree bar -->
  <rect x="50" y="1014" width="650" height="2" fill="url(#gold)" opacity="0.4"/>

  <!-- Roman numeral at top -->
  <text x="375" y="86" text-anchor="middle"
        font-family="'Times New Roman', 'Cinzel', serif"
        font-size="24" font-weight="bold"
        fill="url(#gold)" filter="url(#goldShadow)"
        letter-spacing="3">XVIII</text>

  <!-- Decorative line under numeral -->
  <line x1="295" y1="102" x2="455" y2="102"
        stroke="url(#gold)" stroke-width="1" opacity="0.5"/>
  <circle cx="375" cy="102" r="3" fill="url(#gold)" opacity="0.7"/>

  <!-- Card name (Korean) at bottom -->
  <text x="375" y="960" text-anchor="middle"
        font-family="'Cinzel', serif"
        font-size="32" font-weight="bold"
        fill="url(#goldV)" filter="url(#goldShadow)"
        letter-spacing="4">달</text>

  <!-- Card name (English) -->
  <text x="375" y="992" text-anchor="middle"
        font-family="'Cinzel', 'Times New Roman', serif"
        font-size="15" font-style="italic"
        fill="url(#goldSubtle)" opacity="0.8"
        letter-spacing="2">The Moon</text>

  <!-- Decorative pillars -->
  <rect x="44" y="120" width="1.5" height="820" fill="url(#gold)" opacity="0.15" rx="1"/>
  <rect x="704.5" y="120" width="1.5" height="820" fill="url(#gold)" opacity="0.15" rx="1"/>
  
      
<g transform="translate(375,510)">
  <!-- Moon (large, central) -->
  <path d="M-10,-80 A55,55 0 1,1 -10,30 A65,55 0 0,0 -10,-80 Z"
        fill="url(#gold)" opacity="0.7"/>
  <!-- Moon profile face -->
  <circle cx="-25" cy="-40" r="4" fill="#0a0805" opacity="0.3"/>
  <!-- Moon rays -->
  <g opacity="0.15">
    <line x1="-15" y1="-25" x2="55" y2="-25" stroke="#f5e6a0" stroke-width="1"/><line x1="-15" y1="-25" x2="50.778483455013586" y2="-1.05858996720319" stroke="#f5e6a0" stroke-width="1"/><line x1="-15" y1="-25" x2="38.62311101832846" y2="19.99513267805775" stroke="#f5e6a0" stroke-width="1"/><line x1="-15" y1="-25" x2="20.000000000000007" y2="35.6217782649107" stroke="#f5e6a0" stroke-width="1"/><line x1="-15" y1="-25" x2="-2.844627563314871" y2="43.93654271085457" stroke="#f5e6a0" stroke-width="1"/><line x1="-15" y1="-25" x2="-27.15537243668512" y2="43.93654271085457" stroke="#f5e6a0" stroke-width="1"/><line x1="-15" y1="-25" x2="-49.999999999999986" y2="35.62177826491071" stroke="#f5e6a0" stroke-width="1"/><line x1="-15" y1="-25" x2="-68.62311101832844" y2="19.995132678057765" stroke="#f5e6a0" stroke-width="1"/><line x1="-15" y1="-25" x2="-80.77848345501359" y2="-1.0585899672031793" stroke="#f5e6a0" stroke-width="1"/><line x1="-15" y1="-25" x2="-85" y2="-24.999999999999993" stroke="#f5e6a0" stroke-width="1"/><line x1="-15" y1="-25" x2="-80.77848345501359" y2="-48.94141003279681" stroke="#f5e6a0" stroke-width="1"/><line x1="-15" y1="-25" x2="-68.62311101832847" y2="-69.99513267805776" stroke="#f5e6a0" stroke-width="1"/><line x1="-15" y1="-25" x2="-50.00000000000003" y2="-85.62177826491069" stroke="#f5e6a0" stroke-width="1"/><line x1="-15" y1="-25" x2="-27.155372436685123" y2="-93.93654271085457" stroke="#f5e6a0" stroke-width="1"/><line x1="-15" y1="-25" x2="-2.8446275633149014" y2="-93.93654271085457" stroke="#f5e6a0" stroke-width="1"/><line x1="-15" y1="-25" x2="20.000000000000007" y2="-85.6217782649107" stroke="#f5e6a0" stroke-width="1"/><line x1="-15" y1="-25" x2="38.623111018328444" y2="-69.99513267805777" stroke="#f5e6a0" stroke-width="1"/><line x1="-15" y1="-25" x2="50.77848345501357" y2="-48.94141003279686" stroke="#f5e6a0" stroke-width="1"/>
  </g>
  <!-- Droplets / yods falling from moon -->
  <g opacity="0.4">
    <circle cx="-50" cy="-10" r="1.5" fill="url(#gold)"/><circle cx="-43" cy="-7" r="1.5" fill="url(#gold)"/><circle cx="-36" cy="-4" r="1.5" fill="url(#gold)"/><circle cx="-29" cy="-1" r="1.5" fill="url(#gold)"/><circle cx="-22" cy="2" r="1.5" fill="url(#gold)"/><circle cx="-15" cy="5" r="1.5" fill="url(#gold)"/><circle cx="-8" cy="8" r="1.5" fill="url(#gold)"/><circle cx="-1" cy="11" r="1.5" fill="url(#gold)"/><circle cx="6" cy="14" r="1.5" fill="url(#gold)"/><circle cx="13" cy="17" r="1.5" fill="url(#gold)"/><circle cx="20" cy="20" r="1.5" fill="url(#gold)"/><circle cx="27" cy="23" r="1.5" fill="url(#gold)"/><circle cx="34" cy="26" r="1.5" fill="url(#gold)"/><circle cx="41" cy="29" r="1.5" fill="url(#gold)"/><circle cx="48" cy="32" r="1.5" fill="url(#gold)"/>
  </g>
  <!-- Two towers in background -->
  <rect x="-75" y="20" width="25" height="50" fill="#1a1208" stroke="url(#goldSubtle)" stroke-width="1.5"/>
  <rect x="-72" y="10" width="6" height="15" fill="#1a1208" stroke="url(#goldSubtle)" stroke-width="1"/>
  <rect x="50" y="20" width="25" height="50" fill="#1a1208" stroke="url(#goldSubtle)" stroke-width="1.5"/>
  <rect x="53" y="10" width="6" height="15" fill="#1a1208" stroke="url(#goldSubtle)" stroke-width="1"/>
  <!-- Path between towers -->
  <path d="M-50,70 Q0,60 50,70" stroke="url(#gold)" stroke-width="1" fill="none" opacity="0.3"/>
  <!-- Wolf (left) -->
  <g transform="translate(-65,60) scale(0.6)" opacity="0.35">
    <ellipse cx="0" cy="5" rx="12" ry="8" fill="url(#gold)"/>
    <circle cx="-8" cy="-2" r="5" fill="url(#gold)"/>
    <path d="M-12,-5 L-15,-12 M-10,-5 L-12,-12" stroke="url(#gold)" stroke-width="1"/>
  </g>
  <!-- Dog (right) -->
  <g transform="translate(55,60) scale(0.55)" opacity="0.35">
    <ellipse cx="0" cy="5" rx="10" ry="7" fill="url(#gold)"/>
    <circle cx="8" cy="-2" r="4" fill="url(#gold)"/>
    <path d="M12,-3 L15,-8" stroke="url(#gold)" stroke-width="1"/>
  </g>
  <!-- Crayfish / crustacean in pool -->
  <path d="M-10,75 L-20,85 L-10,80 L0,85 Z" stroke="url(#gold)" stroke-width="1" fill="none" opacity="0.3"/>
  <path d="M-20,85 L-30,82" stroke="url(#gold)" stroke-width="0.8" opacity="0.25"/>
  <path d="M0,85 L10,82" stroke="url(#gold)" stroke-width="0.8" opacity="0.25"/>
</g>
      <rect x="30" y="30" width="690" height="990" rx="12" ry="12"
            fill="url(#innerGlow)" pointer-events="none"/>
    
</svg>